<svg width="71" height="70" viewBox="0 0 71 70" fill="none" xmlns="http://www.w3.org/2000/svg">
<path fill-rule="evenodd" clip-rule="evenodd" d="M35.4945 0.0754857C34.0014 0.314623 33.6523 0.883003 33.6523 3.07466V4.58008L32.8751 4.8776L32.0979 5.17497L30.9012 4.00374C29.7229 2.85091 29.6937 2.83264 29.0205 2.83264C28.1918 2.83264 27.7254 3.14155 26.2679 4.65522C24.4737 6.51845 24.4596 7.08491 26.1629 8.86752L27.2868 10.0438L27.0023 10.765L26.7177 11.4861L25.2745 11.4891C23.1142 11.4936 22.4435 11.8749 22.2593 13.203L22.183 13.7525L14.4911 13.8251C10.2605 13.8651 6.77125 13.9115 6.73732 13.9281C6.39393 14.0965 0.334325 20.3188 0.191062 20.6502C0.0315919 21.019 0 23.6307 0 36.4173C0 51.1844 0.00947758 51.761 0.260153 52.252C0.581429 52.8815 0.893365 53.1705 1.54581 53.4432C1.98068 53.6248 3.13941 53.6544 9.81657 53.6544H17.5816V54.3999C17.5816 55.0417 17.632 55.185 17.9435 55.43C18.787 56.0936 19.6419 55.4314 19.6419 54.1147V53.6544H21.0284C22.3498 53.6544 22.4186 53.6689 22.4954 53.9628C22.5397 54.1326 22.8235 54.7661 23.126 55.3707C23.9104 56.9394 25.4616 58.4689 27.0592 59.2492C29.7851 60.5805 32.5229 60.5684 35.2687 59.2132C39.228 57.2589 41.1728 52.5482 39.7591 48.3367C38.7424 45.308 36.2116 42.9945 33.1766 42.3193L32.1414 42.0889V39.5143C32.1414 37.1944 32.1165 36.917 31.8901 36.7122C31.5298 36.3861 30.7325 36.4194 30.4114 36.7736C30.1777 37.0314 30.1452 37.3327 30.107 39.5815L30.0643 42.1006L29.3166 42.2558C27.5796 42.6164 26.2254 43.3556 24.8137 44.7141C23.2008 46.2659 22.304 48.1557 22.1352 50.3579L22.0457 51.5254H12.0873H2.12902L2.09413 36.4867L2.05911 21.4481L4.83988 18.6647L7.6208 15.8815H14.8614H22.1018L22.1812 16.3966C22.3079 17.2186 22.6881 17.8509 23.2132 18.1132C23.5825 18.2978 24.0439 18.3539 25.2049 18.3553L26.7158 18.3569L26.9969 19.0765L27.2783 19.7961L26.225 20.9075C24.4197 22.8126 24.4592 23.4236 26.5209 25.4853C28.0137 26.9781 28.6771 27.3062 29.5273 26.9722L30.0669 26.7602L30.1082 29.8915C30.146 32.7443 30.1729 33.0484 30.4114 33.3116C30.5895 33.5083 30.8391 33.6004 31.1933 33.6004C32.1302 33.6004 32.1414 33.5451 32.1414 28.8997C32.1414 26.5111 32.1938 24.8096 32.2673 24.8096C32.3365 24.8096 32.6765 24.9311 33.0228 25.0794L33.6523 25.3493L33.6525 26.8307C33.6527 28.5493 33.8473 29.0983 34.6138 29.5437C35.0371 29.7898 35.3325 29.8231 37.0862 29.8231C38.8311 29.8231 39.1354 29.7891 39.5431 29.5484C40.3248 29.0868 40.5198 28.5395 40.5216 26.8035L40.5231 25.2904L41.2427 25.0089L41.9623 24.7276L43.1386 25.8474C44.9228 27.5459 45.6001 27.5205 47.446 25.686C48.8772 24.2638 49.1735 23.8006 49.1735 22.9857C49.1735 22.3128 49.155 22.2828 48.0079 21.1106L46.8422 19.9195L47.1494 19.137L47.4566 18.3544L48.9375 18.3542C51.1287 18.3538 51.7557 17.9804 51.9168 16.5801L51.9893 15.9502L52.8592 15.8809C53.844 15.8026 54.1183 15.5748 54.1183 14.835C54.1183 14.1862 53.5987 13.8211 52.6754 13.8211H51.9564L51.8858 13.1945C51.7439 11.9355 50.946 11.4861 48.8529 11.4861H47.4247L47.1448 10.765L46.865 10.0438L47.8666 9.01367C49.0469 7.79971 49.1735 7.58228 49.1735 6.76872C49.1735 6.07493 48.7138 5.40147 47.3689 4.12543C46.1706 2.9884 45.9097 2.83264 45.2023 2.83264C44.4449 2.83264 44.1972 2.98263 42.9238 4.21252L41.9623 5.14105L41.2412 4.86125L40.5201 4.58146L40.5171 3.12328C40.5134 1.35098 40.2723 0.672024 39.5197 0.314898C38.9497 0.0444432 36.5718 -0.0970337 35.4945 0.0754857ZM38.0305 2.09435L38.4597 2.18019V3.72229C38.4597 5.72385 38.6132 5.98592 40.1788 6.66021C42.2107 7.53516 42.7468 7.43119 44.2931 5.86217C44.7439 5.40463 45.1824 5.03034 45.2671 5.03034C45.352 5.03034 45.8102 5.43526 46.2853 5.93002L47.1493 6.82984L45.9507 8.05465L44.7522 9.27945L44.8121 10.0051C44.9005 11.0777 45.7049 12.8477 46.28 13.2353C46.6918 13.5128 46.9089 13.5464 48.285 13.5464C50.0621 13.5464 49.9924 13.4868 49.9957 15.0117C49.9988 16.3308 50.0453 16.2935 48.3898 16.2935C46.8327 16.2935 46.1878 16.4791 45.8435 17.0265C45.4366 17.673 44.7781 19.4738 44.7781 19.9394C44.7781 20.6256 44.9401 20.8865 46.0987 22.0658L47.1139 23.0994L46.1517 24.0542L45.1895 25.0089L44.0435 23.8689C42.5936 22.4265 42.3054 22.3563 40.6258 23.0365C39.263 23.5885 38.9136 23.7947 38.6945 24.1767C38.6031 24.3359 38.4975 25.208 38.4597 26.1145L38.3911 27.7628L37.0518 27.8021L35.7126 27.8414V26.2891C35.7126 24.1422 35.6049 23.9579 33.9124 23.207C33.0791 22.8373 32.4091 22.6305 32.0206 22.6232C31.4447 22.6123 31.3674 22.6626 30.1978 23.8072L28.9763 25.0025L28.0175 24.051L27.0588 23.0995L28.0009 22.1346C28.519 21.6039 29.0445 21.0168 29.1687 20.83C29.5036 20.3259 29.4442 19.602 28.9752 18.4713C28.109 16.3832 28.1134 16.3863 25.8916 16.2935L24.2434 16.2249V14.92V13.6151L25.9168 13.5464C27.3247 13.4886 27.6501 13.4328 27.9681 13.1949C28.4671 12.8215 29.3784 10.6769 29.3875 9.85442C29.394 9.28069 29.3393 9.1969 28.199 8.03157L27.0037 6.81006L27.9521 5.85434L28.9006 4.89861L30.014 5.98551C30.6264 6.58329 31.2932 7.11389 31.4958 7.16471C32.0819 7.31182 32.8152 7.16307 33.9936 6.65801C35.5603 5.98647 35.7126 5.72577 35.7126 3.71515C35.7126 2.35532 35.742 2.15836 35.953 2.10314C36.3293 2.00479 37.5568 1.99957 38.0305 2.09435ZM35.6439 7.80081C33.7273 8.16371 31.5392 9.82311 30.6469 11.5907C28.641 15.5646 30.5285 20.3265 34.6936 21.7995C38.0672 22.9924 41.9586 21.3937 43.5455 18.1627C44.4894 16.2405 44.5937 14.0541 43.8264 12.2642C43.3952 11.2586 42.3792 11.0812 41.9016 11.9281C41.7254 12.2406 41.7329 12.3761 41.9703 13.1533C42.7863 15.8265 41.7122 18.4386 39.3104 19.6211C38.4724 20.0338 38.2891 20.0708 37.0892 20.0708C35.9577 20.0708 35.6754 20.0213 34.9959 19.7027C32.5689 18.5651 31.3561 15.9301 32.1227 13.4603C32.9682 10.7362 35.6329 9.21791 38.3636 9.90415C39.4767 10.1839 39.8952 10.1073 40.1713 9.57339C40.476 8.98441 40.2359 8.40793 39.5762 8.14393C38.4126 7.67843 36.9602 7.55165 35.6439 7.80081ZM35.9358 11.9626C34.7605 12.3815 33.9352 13.606 33.93 14.9387C33.9192 17.7194 37.2407 19.1354 39.2663 17.2137C40.5715 15.9754 40.5892 14.0118 39.3068 12.7349C38.3703 11.8024 37.1619 11.5255 35.9358 11.9626ZM37.8478 14.1583C38.5339 14.8443 38.0742 16.0188 37.1194 16.0188C36.4575 16.0188 35.9873 15.5785 35.9873 14.9584C35.9873 14.3541 36.5023 13.8211 37.0862 13.8211C37.3537 13.8211 37.6353 13.9457 37.8478 14.1583ZM55.9727 14.6666C55.3399 15.0127 55.1866 15.5981 55.5523 16.2724C55.6611 16.4729 55.786 16.8603 55.8298 17.1332C55.8735 17.4061 56.0325 17.7409 56.1831 17.8771C56.5353 18.1958 57.197 18.1947 57.5505 17.8748C58.2379 17.2526 57.6311 14.9807 56.6897 14.6524C56.4616 14.573 56.2688 14.5098 56.2612 14.512C56.2535 14.5144 56.1237 14.5839 55.9727 14.6666ZM56.097 19.8792C55.881 20.1178 55.8353 20.3814 55.8353 21.3863C55.8353 22.4571 55.8717 22.6408 56.1367 22.9057C56.5068 23.2758 57.1715 23.2999 57.5505 22.957C57.79 22.7402 57.827 22.535 57.827 21.4231C57.827 20.3226 57.7878 20.1004 57.5523 19.8648C57.1821 19.4946 56.4384 19.5019 56.097 19.8792ZM8.32859 23.7208C7.87504 24.0775 7.83233 24.8127 8.24137 25.2217C8.50935 25.4897 8.69918 25.4964 16.0111 25.4964C21.0314 25.4964 23.5959 25.4483 23.7783 25.3507C24.437 24.9981 24.3751 23.9087 23.6781 23.5913C23.4387 23.4821 21.1645 23.4361 16.0141 23.4361C8.81305 23.4361 8.68448 23.4409 8.32859 23.7208ZM56.097 24.9614C55.881 25.2 55.8353 25.4636 55.8353 26.4685C55.8353 27.5393 55.8717 27.723 56.1367 27.9879C56.5068 28.358 57.1715 28.3821 57.5505 28.0391C57.79 27.8224 57.827 27.6172 57.827 26.5053C57.827 25.4048 57.7878 25.1826 57.5523 24.947C57.1821 24.5768 56.4384 24.5841 56.097 24.9614ZM8.24137 28.793C7.89427 29.1401 7.88878 29.7653 8.22928 30.1856L8.49177 30.5099H16.0704H23.649L23.9806 30.1245C24.3866 29.6524 24.398 29.3513 24.0273 28.8802L23.7427 28.5182H16.1293C8.69918 28.5182 8.50949 28.5248 8.24137 28.793ZM56.097 30.0443C55.8768 30.2884 55.8354 30.5493 55.8358 31.6925L55.8364 33.051H50.2317C44.0824 33.051 44.0337 33.057 43.6129 33.8706C43.2908 34.4935 43.305 42.5238 43.6293 43.0725C44.1227 43.9079 44.0769 43.9021 50.1905 43.9021H55.7666V44.9323V45.9625H50.3367C44.3284 45.9625 44.1904 45.9801 43.6828 46.8127C43.4206 47.2426 43.4057 47.4951 43.407 51.4567C43.4088 56.0413 43.4179 56.0995 44.2166 56.6378C44.6813 56.951 44.682 56.951 50.224 56.951H55.7666V57.9812V59.0113H50.224C44.682 59.0113 44.6813 59.0113 44.2166 59.3245C43.5176 59.7956 43.4088 60.1327 43.4066 61.8356L43.4046 63.3551L42.9925 63.6597C42.6536 63.9103 42.5804 64.0623 42.5804 64.516C42.5804 64.9851 42.642 65.1028 42.9917 65.3018L43.4028 65.5357L43.4042 67.1153C43.4054 68.4563 43.4474 68.7636 43.6828 69.1496C44.222 70.0339 43.693 69.9998 56.8655 69.9998C70.0379 69.9998 69.509 70.0339 70.0481 69.1496C70.31 68.7201 70.3254 68.4651 70.3258 64.533C70.3264 59.9324 70.3037 59.7941 69.4612 59.2805C69.0442 59.0262 68.7335 59.0123 63.4242 59.0119L57.827 59.0113V57.9812V56.951H59.3806C60.7544 56.951 60.9691 56.9186 61.2349 56.6709C61.4311 56.4882 61.5356 56.2275 61.5356 55.9208C61.5356 55.6141 61.4311 55.3534 61.2349 55.1707C60.9399 54.8957 60.7937 54.8906 53.1996 54.8906H45.4649V51.4567V48.0228H56.8655H68.266V51.4567V54.8906H66.6437C65.2008 54.8906 64.988 54.9217 64.7207 55.1707C64.3166 55.5472 64.3166 56.2944 64.7207 56.6709C64.9948 56.9263 65.198 56.951 67.0214 56.9504C68.7629 56.95 69.0784 56.9153 69.4612 56.6818C70.3038 56.1681 70.3264 56.0311 70.3264 51.4153C70.3264 47.2936 70.3223 47.2333 70.0125 46.7726C69.8333 46.5059 69.4947 46.2355 69.2227 46.1419C68.8867 46.0262 67.1399 45.9757 63.2808 45.9702L57.8149 45.9625L57.8553 44.9667L57.8956 43.9708L63.6278 43.9021L69.3598 43.8335L69.8088 43.3846L70.2577 42.9357L70.2977 38.6785C70.3328 34.9262 70.3103 34.3636 70.1074 33.936C69.6853 33.0465 69.7195 33.051 63.4654 33.051H57.827V31.6774C57.827 30.487 57.7903 30.2672 57.5523 30.0292C57.1817 29.6586 56.4383 29.6663 56.097 30.0443ZM8.24137 33.7378C7.83233 34.1468 7.87504 34.882 8.32859 35.2387C8.68448 35.5186 8.81305 35.5234 16.0141 35.5234C21.1645 35.5234 23.4387 35.4774 23.6781 35.3682C24.3751 35.0508 24.437 33.9614 23.7783 33.6088C23.5959 33.5111 21.0314 33.4631 16.0111 33.4631C8.69918 33.4631 8.50935 33.4698 8.24137 33.7378ZM68.266 38.4766V41.8418H56.8655H45.4649V38.4766V35.1113H56.8655H68.266V38.4766ZM48.7242 37.6181C48.1409 38.0591 48.2098 39.0617 48.8435 39.3504C49.0868 39.4614 51.4328 39.5067 56.9221 39.5067C64.54 39.5067 64.6632 39.5023 65.0196 39.222C65.4872 38.8543 65.5167 38.1325 65.0809 37.7265C64.7856 37.4513 64.6409 37.4464 56.8659 37.4464C50.7469 37.4464 48.8998 37.4854 48.7242 37.6181ZM8.32859 38.6926C7.87504 39.0493 7.83233 39.7845 8.24137 40.1935C8.50935 40.4615 8.69918 40.4682 16.0111 40.4682C21.0314 40.4682 23.5959 40.4202 23.7783 40.3225C24.437 39.9699 24.3751 38.8805 23.6781 38.5631C23.4387 38.4539 21.1645 38.4079 16.0141 38.4079C8.81305 38.4079 8.68448 38.4127 8.32859 38.6926ZM8.24137 43.7648C7.89427 44.1119 7.88878 44.7371 8.22928 45.1574L8.49177 45.4817H12.156H15.8203L16.0828 45.1574C16.4233 44.7371 16.4178 44.1119 16.0707 43.7648C15.8098 43.5039 15.6129 43.4901 12.156 43.4901C8.69918 43.4901 8.50221 43.5039 8.24137 43.7648ZM32.8968 44.3632C36.15 45.2307 38.383 48.3122 38.1365 51.5941C37.8091 55.9551 33.7623 58.9701 29.5646 57.9803C26.3313 57.2181 24.1747 54.5021 24.1747 51.1925C24.1747 48.0658 26.0132 45.5007 28.979 44.4895C30.0307 44.1308 31.8102 44.0736 32.8968 44.3632ZM32.4722 50.1006L30.6329 51.9218L29.3552 50.6689C28.6362 49.9637 27.9098 49.3737 27.6938 49.3196C27.1279 49.1776 26.5909 49.6192 26.5356 50.2722C26.4949 50.7521 26.576 50.8623 28.1608 52.4787C29.9817 54.3359 30.398 54.6081 31.0218 54.3499C31.6024 54.1094 35.6707 49.9593 35.7886 49.4875C35.9324 48.9108 35.4933 48.379 34.8268 48.3228C34.3312 48.2809 34.2411 48.3491 32.4722 50.1006ZM48.6164 50.7485C48.2034 51.083 48.1979 51.7783 48.605 52.1855L48.9065 52.4869H56.8549C64.4784 52.4869 64.8151 52.4762 65.0924 52.2252C65.4697 51.8838 65.477 51.1401 65.1068 50.77C64.8384 50.5016 64.649 50.4952 56.8807 50.4952C49.3579 50.4952 48.9124 50.5088 48.6164 50.7485ZM17.8563 57.3631C17.6205 57.5989 17.5816 57.8209 17.5816 58.9326C17.5816 60.168 17.5982 60.2407 17.9435 60.5122C18.3579 60.8383 18.5311 60.859 19.0105 60.6406C19.4318 60.4488 19.6419 59.8835 19.6419 58.9426C19.6419 58.0757 19.4252 57.4037 19.0872 57.2228C18.6832 57.0066 18.1523 57.067 17.8563 57.3631ZM68.266 64.5056V67.9395H56.8655H45.4649V64.5056V61.0717H56.8655H68.266V64.5056ZM17.9937 62.4452C17.4536 62.9853 17.7162 63.9757 18.6072 64.7579C19.4575 65.5044 20.3537 65.4936 20.7185 64.7325C20.9582 64.2324 20.7474 63.6883 20.1848 63.356C19.961 63.2238 19.6878 62.9414 19.5777 62.7285C19.2549 62.1042 18.4743 61.9646 17.9937 62.4452ZM22.9385 63.4974C22.4705 63.6849 22.2517 64.0104 22.2517 64.519C22.2517 65.2877 22.5897 65.4671 24.0373 65.4671C25.4849 65.4671 25.823 65.2877 25.823 64.519C25.823 63.7152 25.4704 63.4827 24.195 63.4455C23.6173 63.4286 23.0518 63.4519 22.9385 63.4974ZM28.0207 63.4974C27.5527 63.6849 27.3339 64.0104 27.3339 64.519C27.3339 65.2877 27.6719 65.4671 29.1195 65.4671C30.5671 65.4671 30.9051 65.2877 30.9051 64.519C30.9051 63.7152 30.5526 63.4827 29.2772 63.4455C28.6995 63.4286 28.134 63.4519 28.0207 63.4974ZM33.1028 63.4974C32.6349 63.6849 32.4161 64.0104 32.4161 64.519C32.4161 65.2877 32.7541 65.4671 34.2017 65.4671C35.6493 65.4671 35.9873 65.2877 35.9873 64.519C35.9873 63.7152 35.6347 63.4827 34.3594 63.4455C33.7817 63.4286 33.2162 63.4519 33.1028 63.4974ZM38.185 63.4974C37.7171 63.6849 37.4982 64.0104 37.4982 64.519C37.4982 65.2877 37.8363 65.4671 39.2839 65.4671C40.7315 65.4671 41.0695 65.2877 41.0695 64.519C41.0695 63.7152 40.7169 63.4827 39.4416 63.4455C38.8638 63.4286 38.2983 63.4519 38.185 63.4974ZM48.9627 63.5357C48.295 63.8104 48.0826 64.67 48.5538 65.1906C48.7991 65.4616 48.9613 65.4671 56.8181 65.4671C64.649 65.4671 64.8384 65.4607 65.1068 65.1924C65.477 64.8222 65.4697 64.0785 65.0926 63.7371C64.8162 63.4869 64.4604 63.4742 57.0229 63.4481C52.7435 63.433 49.1164 63.4724 48.9627 63.5357Z" fill="#242424"/>
</svg>
